<svg width="22" height="19" viewBox="0 0 22 19" fill="none" xmlns="http://www.w3.org/2000/svg"><path d="M21.645 16.68a1.79 1.79 0 0 0-1.228-1.225 1.8 1.8 0 0 0-1.693.387l-1.882-1.03v-5.98a.6.6 0 0 0-.064-.26.6.6 0 0 0-.1-.146q-.008-.012-.017-.022a.6.6 0 0 0-.139-.103l-5.042-2.66V3.494a1.8 1.8 0 0 0 1.174-2A1.8 1.8 0 0 0 10.88 0a1.8 1.8 0 0 0-1.775 1.494 1.796 1.796 0 0 0 1.175 2V5.64L5.236 8.3a.6.6 0 0 0-.139.103c-.007.006-.01.015-.017.022a.6.6 0 0 0-.121.198.6.6 0 0 0-.043.207v5.97l-1.885 1.036a1.82 1.82 0 0 0-2.995.993 1.81 1.81 0 0 0 1.13 2.052 1.82 1.82 0 0 0 2.215-.77c.219-.368.3-.802.229-1.225l1.907-1.048 5.081 2.681q.016.008.032.012.017.008.04.015a.54.54 0 0 0 .417 0l.04-.015c.012-.006.021-.006.031-.012l5.07-2.676 1.913 1.051a1.79 1.79 0 0 0 1.098 1.943 1.8 1.8 0 0 0 2.45-1.361c.045-.265.03-.536-.044-.795M6.115 9.83l4.163 2.197v4.97l-4.163-2.2zm5.364 2.189 4.162-2.197v4.971l-4.162 2.197zm-.6-10.817a.602.602 0 0 1 .24 1.153.602.602 0 0 1-.665-.972.6.6 0 0 1 .424-.18m0 5.473 4.078 2.152-4.079 2.151L6.8 8.827zM2.413 17.337A.6.6 0 1 1 1.264 17a.6.6 0 0 1 1.15.336m18.027.13a.6.6 0 1 1-1.05-.577.6.6 0 0 1 1.049.576" fill="#fff"/></svg>