<svg width="30" height="24" viewBox="0 0 30 24" fill="none" xmlns="http://www.w3.org/2000/svg"><path d="M24.96 5.107C23.215 3.5 19.595.805 14.953.805S6.691 3.5 4.946 5.107C2.486 7.372.769 10.21.769 12.009s1.717 4.637 4.177 6.902c1.744 1.608 5.364 4.303 10.007 4.303s8.263-2.696 10.007-4.302c2.46-2.266 4.177-5.104 4.177-6.902 0-1.8-1.717-4.638-4.177-6.903M14.953 21.663c-6.895 0-12.634-7.01-12.634-9.654s5.739-9.653 12.634-9.653 12.634 7.009 12.634 9.654-5.739 9.653-12.634 9.653" fill="#F5F5F1"/><path d="M14.953 6.02a5.997 5.997 0 0 0-5.99 5.99 5.997 5.997 0 0 0 5.99 5.99 5.997 5.997 0 0 0 5.99-5.99 5.997 5.997 0 0 0-5.99-5.99m0 10.429a4.444 4.444 0 0 1-4.439-4.44 4.444 4.444 0 0 1 4.44-4.439 4.444 4.444 0 0 1 4.438 4.44 4.444 4.444 0 0 1-4.439 4.439" fill="#F5F5F1"/></svg>