<svg width="24" height="20" viewBox="0 0 24 20" fill="none" xmlns="http://www.w3.org/2000/svg">
<path d="M23.6681 4.13308C22.8588 1.66081 20.603 0 18.0558 0C16.4423 0 14.8151 0.602548 13.5908 1.65308C12.8292 2.3074 12.2753 3.2585 12.0001 3.79973C11.7295 3.26983 11.1721 2.30792 10.4087 1.65308C9.18443 0.602548 7.55723 0 5.94391 0C3.39672 0 1.14127 1.66081 0.331939 4.13282C-1.07712 8.4367 2.05326 13.7033 8.70576 18.221C9.59829 18.8268 11.1604 19.7607 11.2265 19.7998C11.4428 19.9289 11.7172 20 11.9999 20C12.2828 20 12.5569 19.9289 12.7756 19.7985C12.9425 19.6981 14.4327 18.8057 15.2935 18.221C21.9465 13.7033 25.0771 8.4367 23.6681 4.13308Z" fill="#F83464"/>
</svg>
