<svg width="43" height="37" viewBox="0 0 43 37" fill="none" xmlns="http://www.w3.org/2000/svg">
<path d="M42.4053 7.6462C40.9553 3.07249 36.9138 0 32.3501 0C29.459 0 26.5437 1.11471 24.3502 3.05819C22.9857 4.2687 21.9933 6.02822 21.5003 7.02951C21.0153 6.04919 20.0168 4.26965 18.6489 3.05819C16.4554 1.11471 13.54 0 10.6495 0C6.0858 0 2.04477 3.07249 0.594724 7.64572C-1.92984 15.6079 3.67876 25.351 15.5978 33.7088C17.1969 34.8297 19.9957 36.5573 20.1142 36.6297C20.5017 36.8685 20.9933 37 21.4998 37C22.0067 37 22.4979 36.8685 22.8896 36.6273C23.1887 36.4415 25.8585 34.7906 27.4008 33.7088C39.3208 25.351 44.9299 15.6079 42.4053 7.6462ZM26.0496 31.7901C24.633 32.7847 22.1472 34.3278 21.6589 34.6305C21.6584 34.6314 21.6039 34.6557 21.4998 34.6557C21.3956 34.6557 21.3412 34.6314 21.3359 34.6271C20.8519 34.3278 18.3665 32.7837 16.9494 31.7901C5.91189 24.0514 0.635335 15.2895 2.83549 8.35296C3.97498 4.7591 7.1154 2.34381 10.6495 2.34381C12.9724 2.34381 15.3193 3.24311 17.089 4.81057C18.5084 6.06873 19.5227 8.32389 19.6417 8.59554C20.1558 10.0215 21.0258 10.2345 21.4998 10.2345C21.883 10.2345 22.8304 10.0767 23.3411 8.63796C23.3841 8.53645 24.4171 6.13497 25.9111 4.81009C27.6803 3.24263 30.0271 2.34333 32.351 2.34333C35.8856 2.34333 39.026 4.75814 40.165 8.35249C42.3647 15.2895 37.0882 24.0514 26.0496 31.7901Z" fill="#F5F5F1"/>
</svg>
