<svg width="29" height="22" viewBox="0 0 29 22" fill="none" xmlns="http://www.w3.org/2000/svg"><path d="M22.092 6.201c-.679 0-1.232.553-1.232 1.232a1.233 1.233 0 0 0 2.464 0c0-.68-.553-1.232-1.232-1.232m-4.554 0a1.233 1.233 0 0 0 0 2.464 1.233 1.233 0 0 0 0-2.464m-5.921.334H10.09V5.006a.9.9 0 0 0-1.797 0v1.529h-1.53a.9.9 0 0 0 0 1.797h1.53V9.86a.9.9 0 0 0 1.797 0V8.332h1.528a.9.9 0 0 0 0-1.797m8.198-.148a1.233 1.233 0 1 0-.001-2.465 1.233 1.233 0 0 0 .001 2.465m0 2.092c-.68 0-1.232.552-1.232 1.231a1.233 1.233 0 0 0 2.464 0c0-.679-.553-1.231-1.232-1.231" fill="#F5F5F1"/><path d="M28.33 10.207C27.195 5.409 24.488.28 20.287.28H8.717C4.516.28 1.808 5.407.676 10.206c-1.006 4.262-1.074 9.355 1.15 10.467.61.305 1.173.454 1.722.454 1.78 0 2.806-1.587 3.712-2.987.514-.793 1.045-1.614 1.689-2.182.987-.871 1.933-.954 4.19-.954l1.364.003 1.362-.003c2.258 0 3.204.083 4.192.955.643.568 1.174 1.388 1.688 2.182.906 1.4 1.932 2.986 3.711 2.986.55 0 1.112-.149 1.722-.454 2.225-1.112 2.157-6.206 1.151-10.467m-1.86 9.05c-.381.19-.722.287-1.014.287-.918 0-1.596-1.048-2.382-2.262-.571-.883-1.162-1.797-1.97-2.51-1.456-1.286-2.94-1.35-5.24-1.35l-1.362.003-1.363-.004c-2.3 0-3.784.065-5.24 1.352-.807.712-1.399 1.626-1.97 2.509-.786 1.213-1.465 2.262-2.382 2.262-.29 0-.632-.097-1.013-.287-.884-.442-1.433-3.96-.317-8.687.994-4.208 3.223-8.705 6.5-8.705h11.57c3.277 0 5.506 4.497 6.5 8.705 1.115 4.726.567 8.245-.318 8.687" fill="#F5F5F1"/></svg>