<svg width="45" height="30" viewBox="0 0 45 30" fill="none" xmlns="http://www.w3.org/2000/svg">
<path d="M33.9803 5.72105C32.3106 3.09854 28.9143 2.38132 26.3945 4.1191C23.8747 5.85688 23.1856 9.39159 24.8553 12.0141L32.852 24.574C34.5217 27.1965 37.9179 27.9137 40.4377 26.1759C42.9575 24.4382 43.6466 20.9034 41.9769 18.2809L33.9803 5.72105Z" fill="#F5F5F1"/>
<path d="M18.0418 5.7191C16.3721 3.09658 12.9758 2.37936 10.456 4.11714C7.93625 5.85492 7.24712 9.38964 8.91683 12.0122L16.9135 24.572C18.5832 27.1945 21.9795 27.9118 24.4992 26.174C27.019 24.4362 27.7082 20.9015 26.0385 18.279L18.0418 5.7191Z" fill="#F5F5F1"/>
<path d="M10.4691 20.8168L9.40333 20.476C7.95453 20.0138 6.82768 18.8352 6.3836 17.3331L6.0561 16.2239C5.97283 15.9466 5.72859 15.7617 5.45659 15.7617C5.1846 15.7617 4.9348 15.9524 4.85709 16.2239L4.52958 17.3331C4.08551 18.841 2.95311 20.0138 1.50986 20.476L0.444077 20.8168C0.183182 20.9035 0 21.1577 0 21.4408C0 21.7239 0.183182 21.9838 0.444077 22.0647L1.50986 22.4056C2.95866 22.8677 4.08551 24.0463 4.52958 25.5484L4.85709 26.6576C4.94035 26.9292 5.1846 27.1198 5.45659 27.1198C5.72859 27.1198 5.97838 26.9292 6.0561 26.6576L6.3836 25.5484C6.82768 24.0405 7.96008 22.8677 9.40333 22.4056L10.4691 22.0647C10.7356 21.978 10.9132 21.7239 10.9132 21.4408C10.9132 21.1577 10.73 20.8977 10.4691 20.8168Z" fill="#F5F5F1"/>
</svg>
