<svg xmlns="http://www.w3.org/2000/svg" data-name="Layer 1" viewBox="0 0 32 32"><path d="m29.74 15.26-4.07-4.07a1 1 0 0 0-1.41 1.41l2.36 2.4H17V5.34l2.36 2.37a1 1 0 0 0 .71.29 1 1 0 0 0 .71-.29 1 1 0 0 0 0-1.42l-4.07-4.07a1 1 0 0 0-1.42 0l-4.07 4.07a1 1 0 1 0 1.42 1.42L15 5.34V15H5.38l2.29-2.29a1 1 0 0 0-1.41-1.41l-4 4a1 1 0 0 0 0 1.41l4 4a1 1 0 0 0 1.41 0 1 1 0 0 0 0-1.41L5.38 17H15v9.63l-2.29-2.3a1 1 0 0 0-1.42 1.42l4 4a1 1 0 0 0 .33.21.94.94 0 0 0 .76 0 1 1 0 0 0 .33-.21l4-4a1 1 0 0 0-1.42-1.42L17 26.59V17h9.62l-2.36 2.37a1 1 0 0 0 0 1.41 1 1 0 0 0 1.41 0l4.07-4.07a1 1 0 0 0 0-1.45"/></svg>