<svg width="26" height="29" viewBox="0 0 26 29" fill="none" xmlns="http://www.w3.org/2000/svg"><path d="m6.436 27.261 16.457-9.271c1.658-.934 2.57-2.229 2.57-3.644s-.912-2.71-2.57-3.644L6.435 1.43C4.782.499 3.186.388 1.942 1.117S.012 3.294.012 5.194v18.304c0 1.9.686 3.348 1.93 4.077 1.245.729 2.84.617 4.494-.314m-3.74-.98c-.766-.45-1.188-1.437-1.188-2.784V5.193c0-1.346.422-2.335 1.189-2.784.766-.45 1.834-.334 3.006.326l16.456 9.271c1.167.657 1.81 1.488 1.81 2.339 0 .85-.643 1.681-1.81 2.338l-16.456 9.27c-1.171.662-2.239.778-3.006.328" fill="#F5F5F1"/></svg>