<svg width="30" height="30" viewBox="0 0 30 30" fill="none" xmlns="http://www.w3.org/2000/svg">
<path d="M22.3903 14.1645L15.8335 14.1648L15.8331 7.60717C15.8331 7.38441 15.7463 7.17488 15.5883 7.01756C15.4314 6.86024 15.2218 6.77344 14.9987 6.77344C14.539 6.77378 14.1647 7.14775 14.1647 7.60785V14.1648L7.6058 14.1652C7.38372 14.1652 7.17487 14.252 7.01755 14.4093C6.8599 14.5669 6.7731 14.7765 6.77344 14.9989C6.7731 15.2217 6.8599 15.4309 7.01755 15.5885C7.17521 15.7465 7.3844 15.8333 7.6075 15.8333L14.1647 15.8337L14.1643 22.3906C14.165 22.8497 14.539 23.2244 14.9987 23.225C15.2215 23.225 15.4314 23.1386 15.589 22.9809C15.7467 22.8233 15.8335 22.6137 15.8328 22.391L15.8335 15.8337H22.3907C22.6144 15.833 22.8236 15.7462 22.9809 15.5892C23.1379 15.4315 23.2244 15.2227 23.225 14.9986C23.2244 14.5388 22.8494 14.1645 22.3903 14.1645Z" fill="#F5F5F1"/>
<path d="M25.6115 4.38867C22.7819 1.55867 19.013 0 15 0C10.987 0 7.21842 1.55833 4.38845 4.38867C-1.46282 10.24 -1.46282 19.7607 4.38845 25.6117C7.21842 28.4413 10.987 30 15 30C19.013 30 22.7819 28.4413 25.6115 25.6117C31.4628 19.7603 31.4628 10.2397 25.6115 4.38867ZM24.4516 24.4517C21.9309 26.972 18.575 28.36 15 28.36C11.4254 28.36 8.06874 26.972 5.54844 24.4517C0.337163 19.2393 0.337163 10.7593 5.54844 5.548C8.06908 3.02767 11.4254 1.63967 14.9997 1.63967C18.5743 1.63967 21.9309 3.028 24.4516 5.54833C29.6625 10.76 29.6625 19.2403 24.4516 24.4517Z" fill="#F5F5F1"/>
</svg>
