<svg xmlns="http://www.w3.org/2000/svg" viewBox="0 0 64 64" xml:space="preserve" fill-rule="evenodd" clip-rule="evenodd" stroke-linejoin="round" stroke-miterlimit="2"><path fill="none" d="M0 0h64v64H0z"/><path d="m31.939 36.939-4 4a1.5 1.5 0 0 0 0 2.122l4 4a1.5 1.5 0 0 0 2.122 0 1.5 1.5 0 0 0 0-2.122L31.121 42l2.94-2.939a1.5 1.5 0 0 0 0-2.122 1.5 1.5 0 0 0-2.122 0m5-4.878 4 4a1.5 1.5 0 0 0 2.122 0l4-4a1.5 1.5 0 0 0 0-2.122 1.5 1.5 0 0 0-2.122 0L42 32.879l-2.939-2.94a1.5 1.5 0 0 0-2.122 0 1.5 1.5 0 0 0 0 2.122"/><path d="M23.106 39.698c-4.575-.867-8.343-2.364-10.612-4.286C11.27 34.375 10.5 33.245 10.5 32c0-1.768 1.469-3.288 3.705-4.614C18.217 25.007 24.701 23.5 32 23.5s13.783 1.507 17.795 3.886C52.031 28.712 53.5 30.232 53.5 32s-1.469 3.288-3.705 4.614C45.783 38.993 39.299 40.5 32 40.5h-3a1.5 1.5 0 0 0 0 3h3c7.934 0 14.964-1.719 19.325-4.306C54.673 37.209 56.5 34.648 56.5 32s-1.827-5.209-5.175-7.194C46.964 22.219 39.934 20.5 32 20.5s-14.964 1.719-19.325 4.306C9.327 26.791 7.5 29.352 7.5 32c0 2.037 1.051 4.004 3.055 5.701 2.572 2.178 6.807 3.962 11.993 4.945a1.5 1.5 0 0 0 1.753-1.195c.154-.813-.381-1.599-1.195-1.7Z"/><path d="M39.698 40.894c-.867 4.575-2.364 8.343-4.286 10.612C34.375 52.73 33.245 53.5 32 53.5c-1.768 0-3.288-1.469-4.614-3.705C25.007 45.783 23.5 39.299 23.5 32s1.507-13.783 3.886-17.795C28.712 11.969 30.232 10.5 32 10.5s3.288 1.469 4.614 3.705C38.993 18.217 40.5 24.701 40.5 32v3a1.5 1.5 0 0 0 3 0v-3c0-7.934-1.719-14.964-4.306-19.325C37.209 9.327 34.648 7.5 32 7.5s-5.209 1.827-7.194 5.175C22.219 17.036 20.5 24.066 20.5 32s1.719 14.964 4.306 19.325C26.791 54.673 29.352 56.5 32 56.5c2.037 0 4.004-1.051 5.701-3.055 2.178-2.572 3.962-6.807 4.945-11.993a1.5 1.5 0 0 0-2.948-.558"/></svg>