<svg width="19" height="19" viewBox="0 0 19 19" fill="none" xmlns="http://www.w3.org/2000/svg">
<path d="M13.719 18.2498H13.8226L13.8239 18.2485C16.3428 18.1923 18.3851 16.1156 18.3851 13.5838C18.3851 11.4845 16.9856 9.65182 14.9859 9.08526L14.986 9.08514L14.9784 9.08326C14.8806 9.05879 14.778 9.05508 14.6747 9.08685C14.5734 9.11803 14.4922 9.17703 14.4256 9.24364C14.2785 9.39079 14.2046 9.61059 14.2691 9.8105C14.3579 10.1071 14.4155 10.4285 14.4155 10.7452C14.4155 12.6889 12.8241 14.2802 10.8804 14.2802C10.5628 14.2802 10.2404 14.2223 9.94293 14.133L9.94301 14.1328L9.93173 14.13C9.83385 14.1055 9.73127 14.1018 9.62803 14.1336C9.52668 14.1647 9.44551 14.2237 9.3789 14.2903C9.23223 14.437 9.15841 14.6559 9.22181 14.8552C9.79002 16.8535 11.6537 18.2498 13.719 18.2498ZM13.719 17.119C12.4507 17.119 11.3029 16.4566 10.6756 15.4098C10.7461 15.411 10.8128 15.411 10.8742 15.411H10.8803C13.4471 15.411 15.5461 13.312 15.5461 10.7452V10.7387C15.5461 10.6736 15.5461 10.6097 15.5452 10.5456C16.5722 11.1752 17.2541 12.3218 17.2541 13.584C17.2541 15.5276 15.6627 17.119 13.719 17.119Z" fill="white" stroke="white" stroke-width="0.5"/>
<path d="M3.9043 6.52009C3.9043 7.95935 5.08083 9.13589 6.52009 9.13589C7.95935 9.13589 9.13589 7.95935 9.13589 6.52009C9.13589 5.08083 7.95935 3.9043 6.52009 3.9043C5.08083 3.9043 3.9043 5.08083 3.9043 6.52009ZM5.1929 6.52009C5.1929 5.79071 5.79071 5.1929 6.52009 5.1929C7.24948 5.1929 7.84729 5.79071 7.84729 6.52009C7.84729 7.24948 7.24948 7.84729 6.52009 7.84729C5.79071 7.84729 5.1929 7.24948 5.1929 6.52009Z" fill="white" stroke="white" stroke-width="0.5"/>
<path d="M5.87598 2.9715C5.87598 3.1466 5.93544 3.31194 6.05763 3.43414C6.17983 3.55634 6.34517 3.6158 6.52028 3.6158C6.69538 3.6158 6.86072 3.55634 6.98292 3.43414C7.10512 3.31194 7.16458 3.1466 7.16458 2.9715V1.3943C7.16458 1.2192 7.10512 1.05385 6.98292 0.931656C6.86072 0.809458 6.69538 0.75 6.52028 0.75C6.34517 0.75 6.17983 0.809458 6.05763 0.931656C5.93544 1.05385 5.87598 1.2192 5.87598 1.3943V2.9715Z" fill="white" stroke="white" stroke-width="0.5"/>
<path d="M5.87598 11.6463C5.87598 11.8214 5.93544 11.9867 6.05763 12.1089C6.17983 12.2311 6.34517 12.2906 6.52028 12.2906C6.69538 12.2906 6.86072 12.2311 6.98292 12.1089C7.10512 11.9867 7.16458 11.8214 7.16458 11.6463V10.0691C7.16458 9.894 7.10512 9.72866 6.98292 9.60646C6.86072 9.48426 6.69538 9.4248 6.52028 9.4248C6.34517 9.4248 6.17983 9.48426 6.05763 9.60646C5.93544 9.72866 5.87598 9.894 5.87598 10.0691V11.6463Z" fill="white" stroke="white" stroke-width="0.5"/>
<path d="M3.54384 4.44917C3.59803 4.50336 3.66215 4.55394 3.7423 4.58956C3.82354 4.62567 3.90831 4.64068 3.99663 4.64068C4.08495 4.64068 4.16972 4.62567 4.25095 4.58956C4.3311 4.55394 4.39523 4.50336 4.44941 4.44917C4.70477 4.19382 4.70477 3.79895 4.44942 3.5436L3.34538 2.43956C3.09003 2.18421 2.69515 2.18421 2.4398 2.43956C2.18445 2.69491 2.18445 3.08978 2.4398 3.34513L3.54384 4.44917Z" fill="white" stroke="white" stroke-width="0.5"/>
<path d="M9.69497 10.6005C9.74915 10.6547 9.81328 10.7053 9.89343 10.7409C9.97466 10.777 10.0594 10.7921 10.1478 10.7921C10.2885 10.7921 10.4717 10.7293 10.6005 10.6005C10.8559 10.3452 10.8559 9.95032 10.6005 9.69497L9.4965 8.59093C9.24115 8.33558 8.84628 8.33558 8.59093 8.59093C8.33558 8.84628 8.33558 9.24115 8.59093 9.4965L9.69497 10.6005Z" fill="white" stroke="white" stroke-width="0.5"/>
<path d="M1.3943 7.16458H2.9715C3.1466 7.16458 3.31194 7.10512 3.43414 6.98292C3.55634 6.86072 3.6158 6.69538 3.6158 6.52028C3.6158 6.34517 3.55634 6.17983 3.43414 6.05763C3.31194 5.93544 3.1466 5.87598 2.9715 5.87598H1.3943C1.2192 5.87598 1.05385 5.93544 0.931656 6.05763C0.809458 6.17983 0.75 6.34517 0.75 6.52028C0.75 6.69538 0.809458 6.86072 0.931656 6.98292C1.05385 7.10512 1.2192 7.16458 1.3943 7.16458Z" fill="white" stroke="white" stroke-width="0.5"/>
<path d="M10.0689 7.16458H11.6461C11.8212 7.16458 11.9865 7.10512 12.1087 6.98292C12.2309 6.86072 12.2904 6.69538 12.2904 6.52028C12.2904 6.34517 12.2309 6.17983 12.1087 6.05763C11.9865 5.93544 11.8212 5.87598 11.6461 5.87598H10.0689C9.89376 5.87598 9.72841 5.93544 9.60622 6.05763C9.48402 6.17983 9.42456 6.34517 9.42456 6.52028C9.42456 6.69538 9.48402 6.86072 9.60622 6.98292C9.72841 7.10512 9.89376 7.16458 10.0689 7.16458Z" fill="white" stroke="white" stroke-width="0.5"/>
<path d="M2.4398 10.6005C2.49399 10.6547 2.55811 10.7053 2.63826 10.7409C2.7195 10.777 2.80427 10.7921 2.89259 10.7921C2.98091 10.7921 3.06568 10.777 3.14692 10.7409C3.22707 10.7053 3.29119 10.6547 3.34538 10.6005L4.44941 9.4965C4.70477 9.24115 4.70477 8.84628 4.44941 8.59093C4.19406 8.33558 3.79919 8.33558 3.54384 8.59093L2.4398 9.69497C2.18445 9.95032 2.18445 10.3452 2.4398 10.6005Z" fill="white" stroke="white" stroke-width="0.5"/>
<path d="M8.59093 4.44917C8.64512 4.50336 8.70924 4.55394 8.78939 4.58956C8.87062 4.62567 8.9554 4.64068 9.04371 4.64068C9.18441 4.64068 9.36769 4.57798 9.4965 4.44917L10.6005 3.34513C10.8559 3.08978 10.8559 2.69491 10.6005 2.43956C10.3452 2.18421 9.95032 2.18421 9.69497 2.43956L8.59093 3.5436C8.33558 3.79895 8.33558 4.19382 8.59093 4.44917Z" fill="white" stroke="white" stroke-width="0.5"/>
</svg>
