<svg width="19" height="17" viewBox="0 0 19 17" fill="none" xmlns="http://www.w3.org/2000/svg">
<path d="M12.5142 0.13009C12.3872 0.0453081 12.238 0 12.0854 0C11.9328 0 11.7836 0.0453081 11.6566 0.13009L5.18262 3.83868H2.88893C2.26357 3.83868 1.66364 4.08721 1.22146 4.52938C0.779278 4.97171 0.530762 5.57149 0.530762 6.19685V10.3557C0.530762 10.981 0.779284 11.5808 1.22146 12.0231C1.66364 12.4653 2.26357 12.7138 2.88893 12.7138H5.18262L11.6566 16.4224C11.7837 16.5066 11.933 16.5515 12.0854 16.551C12.237 16.5458 12.3847 16.5015 12.5142 16.4224C12.7753 16.2717 12.938 15.9949 12.9429 15.6936V0.859068C12.938 0.557762 12.7753 0.280959 12.5142 0.130246V0.13009ZM4.56102 10.9987H2.88893C2.71831 10.9987 2.55471 10.931 2.43419 10.8103C2.31352 10.6896 2.24578 10.5262 2.24578 10.3556V6.19677C2.24578 6.02616 2.31352 5.86271 2.43419 5.74204C2.55471 5.62137 2.71831 5.55362 2.88893 5.55362H4.56102V10.9987ZM11.228 14.2143L6.276 11.3632V5.18927L11.228 2.33812V14.2143Z" fill="white"/>
<path d="M17.9805 7.41895H15.2152C14.9088 7.41895 14.6257 7.58239 14.4726 7.84765C14.3194 8.11293 14.3194 8.43981 14.4726 8.70507C14.6257 8.97033 14.9088 9.13378 15.2152 9.13378H17.9805C18.2869 9.13378 18.57 8.97033 18.7231 8.70507C18.8764 8.43979 18.8764 8.11291 18.7231 7.84765C18.57 7.58239 18.2869 7.41895 17.9805 7.41895Z" fill="white"/>
<path d="M15.0221 5.5753L17.1444 4.289H17.1442C17.3374 4.16952 17.4753 3.97812 17.5275 3.75709C17.5797 3.53608 17.5422 3.30327 17.423 3.10992C17.3075 2.91224 17.1161 2.77047 16.8932 2.7177C16.6704 2.66505 16.4356 2.70619 16.2439 2.83134L14.1431 4.11765V4.1175C13.9463 4.23354 13.8041 4.42329 13.7477 4.64462C13.6914 4.86595 13.7256 5.10054 13.843 5.29658C14.0087 5.54989 14.2905 5.70286 14.5932 5.70393C14.7457 5.70437 14.895 5.65951 15.0221 5.57533V5.5753Z" fill="white"/>
<path d="M17.1447 12.264L15.0224 10.9777H15.0225C14.8307 10.8525 14.5961 10.8116 14.3733 10.8642C14.1503 10.9168 13.9589 11.0586 13.8434 11.2564C13.7261 11.4525 13.6918 11.6871 13.7482 11.9084C13.8046 12.1297 13.9468 12.3194 14.1436 12.4355L16.2444 13.7218V13.7217C16.3804 13.8036 16.5358 13.8479 16.6946 13.8504C16.9897 13.8422 17.262 13.6901 17.4235 13.4431C17.5426 13.2497 17.5802 13.0169 17.528 12.7959C17.4758 12.5749 17.3379 12.3835 17.1447 12.264V12.264Z" fill="white"/>
</svg>
