<svg width="22" height="21" viewBox="0 0 22 21" fill="none" xmlns="http://www.w3.org/2000/svg">
<path d="M5.01678 16.4192C4.8331 16.3269 4.62043 16.3111 4.42514 16.3753C4.22983 16.4394 4.06785 16.5783 3.97461 16.7614L3.19683 18.317C3.10447 18.5007 3.08867 18.7133 3.15291 18.9086C3.21697 19.1039 3.35586 19.2659 3.53902 19.3592C3.64666 19.4168 3.76697 19.4461 3.88902 19.4448C4.0326 19.4442 4.17339 19.4041 4.29561 19.3286C4.41766 19.2531 4.51662 19.1453 4.5812 19.017L5.35898 17.4614C5.45134 17.2777 5.46714 17.0651 5.4029 16.8698C5.33884 16.6745 5.19994 16.5125 5.01678 16.4192Z" fill="white"/>
<path d="M21.7774 9.33332C21.77 8.09496 21.3406 6.89599 20.5601 5.93452C19.7795 4.97288 18.6946 4.30621 17.484 4.04444C17.041 2.85848 16.2467 1.83595 15.2071 1.1132C14.1675 0.390621 12.9323 0.00226666 11.6663 0C10.1438 0.00729154 8.67674 0.572577 7.54292 1.58871C6.40905 2.60502 5.68737 4.00173 5.51412 5.51439C5.23409 5.46751 4.95039 5.44408 4.66639 5.44443C2.99919 5.44443 1.45858 6.33385 0.624888 7.77775C-0.208622 9.22166 -0.208622 11.0005 0.624888 12.4444C1.45858 13.8883 2.99919 14.7777 4.66639 14.7777H8.08861L7.10074 16.7611C6.9806 16.9994 6.99102 17.2826 7.12835 17.5114C7.26567 17.7402 7.51064 17.8828 7.77746 17.8889H10.4063L9.41839 19.8722H9.41856C9.3262 20.0559 9.3104 20.2685 9.37464 20.4638C9.4387 20.6591 9.57759 20.8211 9.76075 20.9144C9.86839 20.972 9.9887 21.0013 10.1107 21C10.2543 20.9994 10.3951 20.9593 10.5173 20.8838C10.6394 20.8083 10.7383 20.7005 10.8029 20.5722L12.3585 17.4611C12.4798 17.2203 12.4679 16.934 12.3269 16.7041C12.1857 16.4744 11.9359 16.3342 11.6663 16.3333H9.03752L9.81529 14.7778H15.0731L14.0852 16.7611C13.9928 16.9448 13.977 17.1574 14.0413 17.3527C14.1053 17.548 14.2442 17.71 14.4274 17.8033C14.535 17.8609 14.6553 17.8902 14.7774 17.8888C14.921 17.8883 15.0618 17.8482 15.184 17.7727C15.306 17.6972 15.405 17.5894 15.4696 17.4611L16.8307 14.7777C18.1868 14.6533 19.4468 14.0251 20.3626 13.0173C21.2783 12.0093 21.7831 10.6949 21.7774 9.33331L21.7774 9.33332ZM16.333 13.2222H10.5774L10.7875 12.7944C10.899 12.6092 10.9283 12.3859 10.8684 12.1781C10.8085 11.9703 10.6649 11.7969 10.4719 11.6993C10.279 11.6017 10.0542 11.5889 9.8514 11.6639C9.64862 11.7389 9.48612 11.8948 9.40296 12.0944L8.8507 13.2222H4.66635C3.55488 13.2222 2.52782 12.6292 1.97209 11.6667C1.41635 10.7042 1.41635 9.51805 1.97209 8.55557C2.52782 7.59308 3.55488 7.00001 4.66635 7.00001C5.09187 6.9988 5.51306 7.08612 5.90297 7.25661C6.51737 7.52119 7.03003 7.97674 7.36528 8.55558C7.46909 8.73215 7.63854 8.86062 7.83647 8.91305C8.03456 8.96548 8.24533 8.9377 8.42292 8.83562C8.60087 8.73302 8.73108 8.56427 8.78489 8.36602C8.83889 8.16793 8.81215 7.95647 8.71076 7.77784C8.29965 7.06985 7.70956 6.48238 6.99965 6.07456C7.03802 4.86256 7.54654 3.71327 8.4177 2.8699C9.28872 2.02634 10.4538 1.55497 11.6663 1.55568C12.6784 1.55689 13.6632 1.8845 14.4745 2.48972C15.2858 3.0951 15.8802 3.94581 16.1696 4.91576C16.2113 5.06298 16.2957 5.19458 16.4118 5.29423C16.5281 5.39388 16.671 5.45708 16.8229 5.47565C18.1431 5.64371 19.2858 6.47512 19.8517 7.67947C20.4177 8.884 20.3285 10.2942 19.6153 11.4176C18.9021 12.5412 17.6637 13.222 16.333 13.2223L16.333 13.2222Z" fill="white"/>
</svg>
