<svg width="280" height="31" viewBox="0 0 280 31" fill="none" xmlns="http://www.w3.org/2000/svg">
<path d="M73.7643 12.98C73.5807 13.5307 73.3998 14.147 73.2241 14.8078L72.7233 16.7011C72.6315 17.0472 72.5476 17.3698 72.4715 17.6661C72.3771 17.2937 72.2748 16.8978 72.1673 16.4782C71.9943 15.8095 71.8212 15.1644 71.6507 14.5429C71.4777 13.9215 71.3072 13.3996 71.1499 13.0194L67.7802 1.92969H58.041V26.1781H64.3083V14.8969C64.3083 14.1129 64.2952 13.3131 64.2742 12.4949L64.206 10.1008C64.2008 9.92245 64.1955 9.752 64.1903 9.5868C64.2113 9.66809 64.2323 9.74938 64.2532 9.83591C64.4132 10.481 64.581 11.1156 64.7541 11.7371C64.9298 12.3664 65.1107 12.9433 65.2917 13.4337L69.3169 26.1781H75.0152L79.043 13.4258L79.5412 11.6873C79.7379 11.0055 79.9162 10.3499 80.0788 9.71529L80.1129 9.58417C80.1129 9.6576 80.1129 9.73364 80.1103 9.81231C80.0972 10.557 80.0814 11.3726 80.0578 12.2563C80.0342 13.1426 80.0237 14.0237 80.0237 14.8996V26.1807H86.6345V1.92969H77.1366L73.7696 12.98H73.7643Z" fill="#F5F5F1"/>
<path d="M110.326 13.9411C111.049 12.7087 111.416 11.2795 111.416 9.69565C111.416 8.25601 111.115 6.93699 110.522 5.77269C109.924 4.60315 109.012 3.6565 107.806 2.96421C106.604 2.27717 105.102 1.92578 103.337 1.92578H87.8184V26.1742H94.5314V17.9061H100.809L104.84 26.1742H112.321L107.446 16.7024C108.676 16.0233 109.641 15.095 110.32 13.9385L110.326 13.9411ZM104.564 9.83201C104.564 10.7419 104.334 11.4578 103.88 11.9639C103.429 12.4674 102.8 12.7113 101.96 12.7113H94.5341V7.1966H101.96C102.527 7.1966 103.015 7.30674 103.405 7.52176C103.791 7.73679 104.074 8.02787 104.268 8.41334C104.465 8.80931 104.564 9.28657 104.564 9.83463V9.83201Z" fill="#F5F5F1"/>
<path d="M132.212 13.4668C131.436 12.9135 130.557 12.4677 129.605 12.1373C128.672 11.8147 127.694 11.5394 126.697 11.3191C125.709 11.0988 124.741 10.8995 123.797 10.7134C122.863 10.5324 122.022 10.3305 121.29 10.1155C120.579 9.90831 120.013 9.65133 119.607 9.35239C119.245 9.08753 119.072 8.75713 119.072 8.34805C119.072 8.02026 119.213 7.73705 119.507 7.48269C119.824 7.20473 120.312 6.98183 120.954 6.82187C121.615 6.65667 122.462 6.57275 123.467 6.57275C124.371 6.57275 125.145 6.68289 125.764 6.90054C126.364 7.11032 126.831 7.41189 127.153 7.79474C127.468 8.16973 127.62 8.57619 127.62 9.03771V9.60413H134.095V8.83055C134.095 7.58758 133.809 6.48884 133.242 5.56055C132.681 4.64012 131.895 3.86654 130.906 3.25817C129.93 2.65766 128.782 2.21187 127.492 1.93129C126.215 1.65332 124.804 1.51172 123.296 1.51172C121.788 1.51172 120.356 1.65857 119.03 1.94964C117.697 2.24334 116.51 2.68126 115.503 3.25555C114.477 3.84032 113.667 4.60341 113.093 5.52383C112.516 6.45213 112.222 7.57447 112.222 8.86464C112.222 10.0578 112.461 11.0962 112.93 11.9511C113.397 12.8033 114.032 13.5087 114.81 14.0489C115.571 14.576 116.439 15.027 117.385 15.3915C118.327 15.7534 119.321 16.0471 120.338 16.2648C121.35 16.485 122.315 16.6843 123.236 16.8679C124.143 17.0488 124.972 17.2612 125.701 17.4972C126.411 17.7254 126.978 18.0007 127.387 18.3128C127.751 18.5907 127.927 18.9474 127.927 19.4089C127.927 19.7 127.864 19.9491 127.743 20.1562C127.623 20.3608 127.424 20.5391 127.151 20.686C126.849 20.8485 126.495 20.9849 126.091 21.0924C125.688 21.2025 125.247 21.2812 124.78 21.3258C124.311 21.3704 123.8 21.394 123.257 21.394C122.226 21.394 121.311 21.2996 120.535 21.1081C119.79 20.9272 119.221 20.6256 118.836 20.2113C118.458 19.8049 118.277 19.3066 118.277 18.6878C118.277 18.5855 118.282 18.4858 118.293 18.3914C118.306 18.2761 118.311 18.1686 118.311 18.0663V17.7752H111.768V18.0663C111.768 18.1659 111.763 18.2498 111.755 18.3154C111.742 18.4072 111.734 18.5199 111.734 18.6511C111.734 20.1222 112.049 21.394 112.671 22.435C113.292 23.4761 114.17 24.31 115.277 24.9183C116.371 25.5162 117.64 25.9515 119.051 26.2059C120.451 26.4603 121.969 26.5887 123.564 26.5887C125.698 26.5887 127.62 26.3239 129.283 25.7994C130.972 25.2671 132.322 24.3965 133.298 23.2086C134.278 22.0102 134.776 20.4316 134.776 18.5121C134.776 17.3425 134.543 16.3382 134.084 15.5253C133.628 14.7229 132.999 14.0306 132.209 13.4694L132.212 13.4668Z" fill="#F5F5F1"/>
<path d="M146.909 15.4214L146.442 16.7483C146.269 17.2439 146.107 17.729 145.957 18.2037C145.871 18.4738 145.792 18.7281 145.716 18.9641C145.619 18.7019 145.522 18.4187 145.428 18.1171C145.265 17.6084 145.1 17.1075 144.924 16.6119C144.751 16.1163 144.607 15.7099 144.491 15.3847L139.635 1.92969H132.355L141.885 26.1781H149.24L158.807 1.92969H151.837L146.909 15.4214Z" fill="#F5F5F1"/>
<path d="M185.006 13.4668C184.227 12.9135 183.351 12.4677 182.4 12.1373C181.466 11.8147 180.488 11.5394 179.491 11.3191C178.503 11.0988 177.535 10.8995 176.591 10.7134C175.658 10.5324 174.816 10.3305 174.084 10.1155C173.374 9.90831 172.807 9.65133 172.401 9.35239C172.039 9.08753 171.866 8.75713 171.866 8.34805C171.866 8.02026 172.007 7.73705 172.301 7.48269C172.618 7.20473 173.106 6.98183 173.749 6.82187C174.409 6.65667 175.256 6.57275 176.261 6.57275C177.165 6.57275 177.936 6.68289 178.558 6.90054C179.158 7.11032 179.625 7.41189 179.948 7.79474C180.262 8.16973 180.415 8.57619 180.415 9.03771V9.60413H186.889V8.83055C186.889 7.58758 186.603 6.48884 186.037 5.56055C185.476 4.64012 184.689 3.86654 183.7 3.25817C182.725 2.65766 181.576 2.21187 180.286 1.93129C179.009 1.65332 177.598 1.51172 176.09 1.51172C174.583 1.51172 173.151 1.65857 171.824 1.94964C170.489 2.24334 169.304 2.68126 168.297 3.25555C167.272 3.84032 166.461 4.60341 165.887 5.52383C165.31 6.45213 165.016 7.57447 165.016 8.86464C165.016 10.0578 165.255 11.0962 165.724 11.9511C166.191 12.8033 166.826 13.5087 167.605 14.0489C168.365 14.576 169.233 15.027 170.18 15.3915C171.121 15.7534 172.115 16.0471 173.132 16.2648C174.145 16.485 175.11 16.6843 176.03 16.8679C176.935 17.0488 177.766 17.2612 178.495 17.4972C179.206 17.7254 179.772 18.0007 180.181 18.3128C180.546 18.5907 180.721 18.95 180.721 19.4089C180.721 19.7 180.658 19.9491 180.538 20.1562C180.417 20.3634 180.218 20.5391 179.945 20.686C179.646 20.8459 179.29 20.9823 178.888 21.0924C178.484 21.2025 178.044 21.2812 177.577 21.3258C177.108 21.3704 176.596 21.394 176.054 21.394C175.023 21.394 174.108 21.2996 173.332 21.1081C172.587 20.9272 172.018 20.6256 171.632 20.2113C171.255 19.8049 171.074 19.3066 171.074 18.6878C171.074 18.5855 171.079 18.4858 171.09 18.3914C171.103 18.2761 171.108 18.1686 171.108 18.0663V17.7752H164.565V18.0663C164.565 18.1659 164.56 18.2498 164.552 18.318C164.539 18.4098 164.531 18.5226 164.531 18.6537C164.531 20.1248 164.846 21.3966 165.467 22.4377C166.089 23.4787 166.967 24.3126 168.074 24.921C169.167 25.5188 170.437 25.9541 171.847 26.2085C173.248 26.4629 174.766 26.5914 176.36 26.5914C178.492 26.5914 180.417 26.3265 182.08 25.8021C183.768 25.2697 185.119 24.3991 186.094 23.2112C187.075 22.0155 187.573 20.4342 187.573 18.5147C187.573 17.3451 187.34 16.3408 186.881 15.5279C186.427 14.7255 185.795 14.0332 185.006 13.472V13.4668Z" fill="#F5F5F1"/>
<path d="M210.299 14.3279C210.95 13.1085 211.28 11.6768 211.28 10.0745C211.28 8.47232 210.955 7.0117 210.315 5.80544C209.672 4.59132 208.742 3.62894 207.548 2.94976C206.36 2.27321 204.934 1.92969 203.306 1.92969H188.684V26.1781H195.399V18.2194H203.169C204.821 18.2194 206.271 17.8759 207.48 17.2019C208.694 16.5228 209.644 15.5578 210.299 14.3279ZM195.402 7.26606H201.792C202.43 7.26606 202.965 7.3762 203.379 7.59385C203.788 7.80888 204.092 8.11306 204.307 8.52214C204.525 8.93647 204.635 9.4583 204.635 10.0745C204.635 11.0002 204.391 11.7135 203.911 12.1934C203.431 12.6732 202.718 12.9171 201.792 12.9171H195.402V7.26344V7.26606Z" fill="#F5F5F1"/>
<path d="M224.288 1.92969H216.699L206.711 26.1781H213.65L215.233 22.0086H225.442L227.026 26.1781H234.242L224.362 2.11063L224.288 1.92969ZM219.476 10.6829C219.66 10.1322 219.843 9.57368 220.027 9.00989C220.145 8.64801 220.252 8.31498 220.352 8.00555C220.41 8.18387 220.473 8.37529 220.541 8.58246C220.677 8.99416 220.816 9.41897 220.953 9.85165C221.092 10.2922 221.231 10.7091 221.37 11.1025C221.509 11.4932 221.624 11.8157 221.716 12.0727L223.496 16.8112H217.205L218.986 12.0439C219.125 11.7004 219.285 11.2546 219.474 10.6829H219.476Z" fill="#F5F5F1"/>
<path d="M250.238 16.7538C250.238 17.6768 250.01 18.4871 249.564 19.1584C249.118 19.8297 248.47 20.3437 247.644 20.6872C246.8 21.0386 245.777 21.2169 244.605 21.2169C243.215 21.2169 242.064 20.9626 241.183 20.4617C240.312 19.9661 239.652 19.2188 239.221 18.238C238.781 17.2363 238.558 16.03 238.558 14.6507V13.4104C238.558 12.0546 238.781 10.8667 239.221 9.87813C239.652 8.90788 240.325 8.15266 241.22 7.63607C242.122 7.11423 243.26 6.84938 244.605 6.84938C245.727 6.84938 246.708 7.03818 247.516 7.40793C248.31 7.77505 248.937 8.30213 249.375 8.97344C249.813 9.64474 250.033 10.4786 250.033 11.4515V11.7426H256.61V11.4515C256.61 9.30909 256.088 7.47611 255.06 5.99713C254.035 4.5234 252.606 3.39319 250.817 2.64059C249.045 1.89324 246.978 1.51562 244.676 1.51562C240.506 1.51562 237.265 2.58028 235.036 4.67811C232.805 6.7812 231.672 9.94106 231.672 14.0712C231.672 16.8167 232.17 19.1506 233.153 21.0098C234.142 22.8847 235.624 24.3008 237.556 25.2186C239.471 26.1285 241.865 26.59 244.676 26.59C247.046 26.59 249.147 26.2045 250.922 25.4467C252.708 24.6836 254.124 23.5665 255.128 22.1243C256.135 20.6794 256.644 18.8726 256.644 16.7564V16.4653H250.24V16.7564L250.238 16.7538Z" fill="#F5F5F1"/>
<path d="M264.678 20.8417V16.4625H277.527V11.231H264.678V7.30015H279.352V1.92969H257.928V26.1781H279.559V20.8417H264.678Z" fill="#F5F5F1"/>
<path d="M162.686 25.6545L161.771 25.3739C160.53 24.9884 159.56 24.0208 159.18 22.7805L158.897 21.8627C158.826 21.6371 158.619 21.4824 158.383 21.4824C158.147 21.4824 157.937 21.6371 157.869 21.8627L157.588 22.7778C157.205 24.0182 156.235 24.9884 154.997 25.3713L154.079 25.6519C153.854 25.7201 153.699 25.9298 153.699 26.1658C153.699 26.4019 153.851 26.6116 154.079 26.6798L154.997 26.963C156.238 27.3433 157.205 28.3135 157.588 29.5539L157.869 30.4717C157.937 30.6972 158.147 30.8519 158.383 30.8519C158.619 30.8519 158.828 30.6972 158.897 30.4717L159.18 29.5539C159.563 28.3135 160.53 27.3459 161.771 26.963L162.688 26.6798C162.914 26.609 163.069 26.4019 163.069 26.1658C163.069 25.9298 162.914 25.7201 162.688 25.6519L162.686 25.6545Z" fill="#F5F5F1"/>
<path d="M28.3907 3.17351L28.3885 3.17496C25.7458 4.92611 25.0231 8.48803 26.7743 11.1307L35.1653 23.7939C36.9165 26.4366 40.4784 27.1593 43.1211 25.4081L43.1233 25.4067C45.766 23.6555 46.4887 20.0936 44.7376 17.4509L36.3465 4.78779C34.5953 2.1451 31.0334 1.42236 28.3907 3.17351Z" fill="#F5F5F1"/>
<path d="M11.6681 3.17156L11.6659 3.17301C9.02319 4.92416 8.30045 8.48608 10.0516 11.1288L18.4427 23.7919C20.1938 26.4346 23.7558 27.1573 26.3984 25.4062L26.4006 25.4047C29.0433 23.6536 29.7661 20.0917 28.0149 17.449L19.6238 4.78584C17.8727 2.14315 14.3108 1.42041 11.6681 3.17156Z" fill="#F5F5F1"/>
<path d="M11.6815 20.0027L10.5618 19.6566C9.04348 19.1924 7.8582 18.0045 7.39143 16.4888L7.04791 15.3691C6.96137 15.0911 6.70701 14.9023 6.41594 14.9023C6.12486 14.9023 5.8705 15.0911 5.78396 15.3665L5.43782 16.4862C4.97367 18.0045 3.78577 19.1898 2.26746 19.6566L1.14774 20.0027C0.872399 20.0892 0.683594 20.3436 0.683594 20.6347C0.683594 20.9258 0.872399 21.1801 1.15036 21.2667L2.26746 21.6102C3.78577 22.0743 4.97105 23.2622 5.43782 24.7805L5.78396 25.9003C5.8705 26.1756 6.12486 26.3644 6.41594 26.3644C6.70701 26.3644 6.96137 26.1756 7.04791 25.8976L7.39143 24.7805C7.85558 23.2622 9.04348 22.0769 10.5592 21.6102L11.6789 21.2667C11.9568 21.1801 12.1457 20.9258 12.1457 20.6347C12.1457 20.3436 11.9568 20.0892 11.6815 20.0027Z" fill="#F5F5F1"/>
</svg>
